<?xml version="1.0" encoding="utf-8"?>
<!DOCTYPE svg PUBLIC "-//W3C//DTD SVG 20010904//EN" "http://www.w3.org/TR/2001/REC-SVG-20010904/DTD/svg10.dtd">
<svg version="1.0" xmlns="http://www.w3.org/2000/svg" width="837px" height="720px" viewBox="0 0 837 720" preserveAspectRatio="xMidYMid meet">
 <g fill="none" stroke="#000000" stroke-width="1">
  <path d="M446.7 156.8C445 156.4 443.2 155 441.7 154C438.5 152 435.2 150 432.1 148C421.4 141.1 410.7 134.1 399.7 127.7C368.2 109.2 335.4 92.8 300.8 81.2C278.7 74 256.2 68.1 233.1 64.7C226.8 63.8 220.4 63 214 62.5C211.5 62.4 209 62.4 206.5 62.2C198.2 61.4 189.7 62.2 181.5 62.8C153.5 64.7 123.5 72.5 103.4 93.2C98.8 98 95 103.2 91.8 109C89 113.8 86.7 119.2 85.1 124.7C83.4 131 83.5 137.2 83.5 143.7C83.5 153 83.8 161.8 86.1 170.8C86.7 173.1 87.4 175.4 88.2 177.7C88.5 178.4 88.5 179.2 89.1 180C96.5 188.7 105.4 197.1 114.5 204.1C137.2 221.2 163.8 231 192 234.7C199 235.5 205.8 235.5 212.8 235.8C262.4 238 311.4 224.8 356.8 205.7C380.7 195.7 403.7 184 426 170.8C431.2 167.7 436.5 164.5 441.7 161.2C443.2 160.2 446.5 159 446.8 157C450.2 157 453.4 154.8 456.2 153C462 149.5 467.2 145.7 472.8 141.8C493.2 128 513.8 114.2 534.8 101.1C576.5 75 620.4 51.8 666 33.2C685.8 25.2 706.1 18.1 727 13C737 10.4 747.1 8.1 757.4 6.8C761.7 6.4 766 6.1 770.2 5.8C785.2 4.8 801.4 5.4 815.1 12.5C821.7 16 827.7 20.5 831.2 27.2C832.4 29.4 833.5 31.4 834.4 33.7C835.8 38.1 835.4 43 835.4 47.5C835.4 51.8 835.5 56.1 834.8 60.2C834.1 64.1 832.7 67.8 831.4 71.5C828.5 79.5 825 87.4 821 94.8C812.1 111.1 801.7 126.2 791.2 141.4C773.1 168 752.7 193.2 731.1 217.1C697.1 254.7 659.2 289.4 617.4 318.2C606.1 326.1 594.5 333.5 582.7 340.5C579.7 342.4 576.7 344.1 573.8 346.2C573 346.8 571.4 348 571.2 349C571.1 350.2 573 350.4 573.8 350.8C576.8 352.5 579.8 354.1 582.8 355.7C595.4 362 607.5 369.4 618.8 377.8C637.1 391.2 653.8 406.7 668.5 424C686.8 445.4 702 470 714.5 495.1C719.8 505.5 724.5 516.1 729 527C730 529.5 730.8 532 731.8 534.5C732.2 535.8 732.8 536.7 731.8 537.8C726.2 531.8 720.4 526.1 713.7 521.2C698.5 510.1 681.4 501.7 663.2 496.5C636.2 489.1 607.1 488.4 579.2 491.1C564.8 492.5 550.2 494.5 536.1 498.1C525 501 513.8 504 503 507.8C490.2 512.4 477.4 517 465.1 522.5C442 533 419.4 544.5 397.7 557.5C392.8 560.5 388.1 563.5 383.4 566.7C381.8 567.7 378.8 569.2 378.2 571.1C378 572 379 572.5 379.1 573.2C380.4 573.2 381.4 572.5 382.5 572C385.1 570.5 387.7 568.8 390.1 567.1C397.8 562 405.8 557.2 414 552.7C442.4 537.1 471.2 523.1 501.8 512.2C534.2 500.7 567.7 494 602 493.1C628.4 492.4 654.8 496.4 679.5 506.2C694 512.1 707.4 520.8 719 531.1C723 534.7 726.7 538.5 730.4 542.4C731.5 543.5 733.2 546.2 735 546.4C736.1 546.5 735.2 544.5 735.1 544.1C734.4 542.1 733.8 539 731.8 538M444.1 155.8C442.5 157 440.4 157.7 438.7 158.5C435.5 160.2 432.5 162.1 429.5 163.8C415.7 172.1 401.5 180.1 387.1 187.2C328.4 216.7 262.7 238.8 196.2 231.7C166.8 228.5 136.5 217.7 113.8 198.2C107.5 192.8 101.7 187 95.5 181.4C94 180 90.7 176.1 88.2 177.5M89 180.2C90 185.1 92.4 190 94.1 194.7C97.8 204.7 101.7 214.5 106 224.2C116 246.7 128.5 268 143.1 287.7C161.8 313 184 336 210.1 353.7C223.2 362.7 236.8 370.7 251.2 377.2C253.4 378.2 257.1 379.2 258.7 381C259.7 382.2 258.1 382.8 257.8 383.8C257.5 384.5 258.1 385.2 258.8 385.2C260.7 385.2 262.7 384.1 264.4 383.4C268.8 381.5 273 379 277.2 376.7C289.5 370.1 302.4 364.1 315.2 358.7C352.7 343.1 391.5 333.1 432 329.2C467.2 326 503.1 330.2 537.1 340.1C546 342.7 554.2 346.5 563 349.4C565.1 350.1 567.2 351 569.5 351C570.4 351 571.2 351.1 572 350.4M90.1 180.8L89.7 181M259.2 382.2C261.2 381.4 263 380.1 264.8 379C268 377.1 271.1 375.5 274.2 373.8C287.5 367 301 360.2 314.8 354.7C337.8 345.2 361.5 337.5 386 332.4C419.4 325.4 454.2 323.4 488.1 326.7C507.5 328.5 526.2 332.8 544.8 338.7C551 340.7 557.1 342.8 563.1 345.2C565 346 566.8 346.7 568.5 347.5C569.4 348 570.1 348.7 571.1 348.8M379.1 573.2C377.1 574.7 374.8 575.8 372.8 577.2C368.8 579.8 364.8 582.5 360.8 585.2C342.5 598 324.1 610.4 305.2 622.4C246.7 659.5 184.5 693.7 117.5 713C110 715.1 102.2 717.4 94.5 718.7C91.1 719.1 87.8 719.1 84.4 719.4C83.7 719.5 83.1 720 82.4 720C79 720.2 75.4 720 72 720L51 720L38.7 720C36.7 720 34.5 720.2 32.7 720C30.1 719.5 27.4 718.5 25.1 717.4C19.8 715.1 14.7 712.1 10.7 707.7C7 703.5 3.5 697.7 2.2 692.2C1 686.2 1.4 679.5 2 673.5C3 663.1 6.4 653.5 10.8 644.1C17.1 630.4 25.2 617.8 33.2 605.1C48.1 581.2 65.1 558.5 83 536.8C115.1 497.5 151.1 461.1 191 429.5C206.5 417.2 222.5 405.7 239.4 395.2C243.5 392.5 247.7 390 251.8 387.4C253.5 386.2 255.5 384.2 257.5 384M732.5 537.1L732.8 538.2M735.7 546.4C737.2 548.4 737.7 552.1 738.4 554.5C740.2 561 742 567.4 742.8 574.1C744.1 582.4 744.1 591 743.1 599.2C742.2 605.1 740.8 611 738.7 616.5C736.8 621.2 734.4 626 731.5 630.2C717.1 651.5 692.2 663 667.7 668C653.2 671 638.2 670.8 623.7 670.7C617.4 670.5 611 670.5 604.7 670C584.4 668 564.1 663.1 544.7 657.2C508 646.2 472.4 630 439.5 610.5C425 601.8 410.8 592.5 396.5 583.4C392.8 581.1 389.1 578.7 385.2 576.4C383.8 575.7 381.2 574.8 380.4 573.4"/>
 </g>
</svg>