<?xml version="1.0" encoding="utf-8"?>
<!DOCTYPE svg PUBLIC "-//W3C//DTD SVG 20010904//EN" "http://www.w3.org/TR/2001/REC-SVG-20010904/DTD/svg10.dtd">
<svg version="1.0" xmlns="http://www.w3.org/2000/svg" width="837px" height="720px" viewBox="0 0 837 720" preserveAspectRatio="xMidYMid meet">
 <g fill="none" stroke="#00ab36" stroke-width="1">
  <path d="M603 669.6 c-42.2 -5.4 -84.1 -18.7 -129.5 -41.1 -23.2 -11.5 -40.5 -21.5 -67.8 -39.3 -10 -6.6 -19.8 -12.7 -21.7 -13.7 -3.4 -1.8 -3.4 -1.8 -0.6 -4 3.4 -2.7 27.3 -17.1 41.6 -25 34.3 -19.1 77 -36.3 111.5 -44.9 41.3 -10.3 84.4 -11.7 117.9 -3.7 31.4 7.5 59.6 24.4 78.6 47.2 4.1 4.9 4.9 6.8 7.5 17 2.6 10.1 2.9 13.1 2.9 25.9 0 12.5 -0.4 15.6 -2.5 22.5 -6.1 20 -20.4 36.3 -40.7 46.4 -8.7 4.4 -24.9 9.6 -35.7 11.6 -12.2 2.3 -47.3 2.9 -61.5 1.1z"/>
 </g>
 <g fill="none" stroke="#e3007b" stroke-width="1">
  <path d="M258.8 381.2 c-0.2 -0.4 -3.7 -2.3 -7.8 -4.1 -17.7 -8.1 -40.2 -22 -56 -34.7 -38.6 -31 -73.5 -79.3 -93.6 -129.1 -4.8 -11.9 -12.4 -32 -12.4 -32.8 0 -0.1 5.1 4.8 11.3 10.9 30.3 30.2 69.3 44.6 121 44.6 47.1 0 95.2 -11.9 151.7 -37.5 19.9 -9 57.1 -29.3 70.7 -38.6 2.3 -1.6 4.8 -2.9 5.6 -2.9 0.8 0 9.7 -5.7 19.8 -12.7 59.5 -40.9 99.3 -65 145.4 -87.8 52.7 -26.1 96 -41.7 135 -48.6 18.6 -3.3 42.7 -3.3 53.8 -0.1 15.4 4.4 24.4 11.1 29.5 22 2.5 5.2 2.7 6.8 2.7 17.7 -0.1 11.2 -0.3 12.7 -3.8 23 -4.6 13.4 -12.6 28.9 -23.7 46 -62.5 96.4 -140.4 173.7 -226.8 224.8 -11.2 6.7 -11.2 6.7 -17 4.3 -30.8 -13 -62.3 -19.4 -99.8 -20.3 -49.5 -1.3 -96.4 7.7 -146.4 27.9 -13.4 5.4 -39.9 18.1 -51.7 24.6 -3.9 2.3 -7.3 3.8 -7.5 3.4z"/>
 </g>
 <g fill="none" stroke="#00b2ed" stroke-width="1">
  <path d="M25.6 717.5 c-10.5 -4.4 -16.4 -9.9 -21 -19.5 -2.9 -6.1 -3.1 -7.2 -3 -17.5 0.1 -14.1 2.8 -23.7 12.3 -43 7.8 -15.8 29.8 -49.7 49.1 -75.4 52.3 -69.8 116.1 -129.9 179.2 -168.8 7.3 -4.5 15.2 -9.6 17.5 -11.3 5.9 -4.4 38.3 -20.6 54.8 -27.4 52 -21.3 99.3 -30.6 149.9 -29.3 24.3 0.6 41 2.7 61.1 7.6 16.2 4 44 13.8 45.5 16.1 0.3 0.4 6.1 3.5 12.9 7 31.5 16 62.8 41.4 86.9 70.5 24 28.8 48.7 72.9 61.8 110.2 4.5 12.6 4.5 12.6 -4.7 2.9 -29.8 -31.4 -69.4 -46.7 -121.4 -46.7 -39.7 0 -77.1 7.9 -122.5 25.8 -31.2 12.3 -71.8 33.4 -97.2 50.5 -3.1 2.1 -6.3 3.8 -7.1 3.8 -0.8 0 -11.3 6.8 -23.3 15.2 -98.1 68.1 -178.4 109.1 -249.6 127.5 -14.3 3.7 -14.3 3.7 -44.8 4 -30.5 0.3 -30.5 0.3 -36.4 -2.2z"/>
 </g>
 <g fill="none" stroke="#f7e700" stroke-width="1">
  <path d="M192 234.5 c-38.5 -5.3 -67.7 -19.1 -92.1 -43.5 -11.6 -11.6 -11.6 -11.6 -14 -21.1 -2 -7.8 -2.4 -12 -2.4 -24.9 0 -13.6 0.3 -16.4 2.3 -22.5 8.7 -25.8 27.5 -43.1 57.7 -53 19.9 -6.5 50.7 -9.1 76 -6.6 64.6 6.6 132.6 33.1 204.2 79.5 9.4 6.1 18.7 11.9 20.5 12.9 3.2 1.8 3.2 1.9 1.3 3.4 -1.1 0.8 -7.9 5 -15.1 9.3 -63.1 37.7 -123.2 60.1 -178.9 66.5 -15.7 1.8 -46.2 1.8 -59.5 0z"/>
 </g>
</svg>