<?xml version="1.0" standalone="no"?><svg xmlns:xlink="http://www.w3.org/1999/xlink" xmlns="http://www.w3.org/2000/svg" viewBox="0 0 1000 777.783523814449" preserveAspectRatio="xMaxYMax slice"><g transform="scale(1.6548585613073383)"><rect x="0" y="0" width="604.2857142857142" height="470" fill="#fcfcfc"/><polygon points="161.14,26.86 174.57,26.86 161.14,40.29" fill="#c663f8"/><polygon points="228.29,26.86 241.72,26.86 241.72,40.29" fill="#e3e9f3"/><polygon points="295.43,26.86 308.86,26.86 295.43,40.29" fill="#e9c7fb"/><polygon points="362.57,26.86 376,26.86 376,40.29" fill="#e9eef5"/><polygon points="429.71,26.86 443.14,26.86 443.14,40.29" fill="#d793f9"/><polygon points="510.29,26.86 510.29,40.29 496.86,40.29" fill="#f6ebfc"/><polygon points="564,26.86 577.43,40.29 564,40.29" fill="#e5b9fa"/><polygon points="26.86,94 40.29,107.43 26.86,107.43" fill="#ecf0f6"/><polygon points="94,94 107.43,107.43 94,107.43" fill="#c359f8"/><polygon points="174.57,94 174.57,107.43 161.14,107.43" fill="#c766f8"/><polygon points="228.29,94 241.72,94 228.29,107.43" fill="#f8f1fc"/><polygon points="308.86,94 308.86,107.43 295.43,107.43" fill="#e2b3fa"/><polygon points="376,94 376,107.43 362.57,107.43" fill="#c4d2e7"/><polygon points="429.71,94 443.14,94 429.71,107.43" fill="#bccce4"/><polygon points="510.29,94 510.29,107.43 496.86,107.43" fill="#c7d4e8"/><polygon points="26.86,161.14 40.29,161.14 26.86,174.57" fill="#f4f6f9"/><polygon points="241.72,161.14 241.72,174.57 228.29,174.57" fill="#dde5f1"/><polygon points="362.57,161.14 376,174.57 362.57,174.57" fill="#cf7bf9"/><polygon points="496.86,161.14 510.29,161.14 496.86,174.57" fill="#efd8fb"/><polygon points="161.14,228.29 174.57,228.29 174.57,241.72" fill="#f0dafb"/><polygon points="228.29,228.29 241.72,241.72 228.29,241.72" fill="#dde5f1"/><polygon points="295.43,228.29 308.86,228.29 295.43,241.72" fill="#dda3fa"/><polygon points="362.57,228.29 376,241.72 362.57,241.72" fill="#f7eefc"/><polygon points="429.71,228.29 443.14,241.72 429.71,241.72" fill="#d7e0ee"/><polygon points="496.86,228.29 510.29,241.72 496.86,241.72" fill="#ecd0fb"/><polygon points="564,228.29 577.43,228.29 577.43,241.72" fill="#d9e2ef"/><polygon points="26.86,295.43 40.29,295.43 26.86,308.86" fill="#e2e9f3"/><polygon points="94,295.43 107.43,295.43 94,308.86" fill="#f9f3fc"/><polygon points="362.57,295.43 376,308.86 362.57,308.86" fill="#edd0fb"/><polygon points="94,362.57 107.43,362.57 107.43,376" fill="#edd2fb"/><polygon points="174.57,362.57 174.57,376 161.14,376" fill="#b3c5e1"/><polygon points="228.29,362.57 241.72,362.57 228.29,376" fill="#d3dded"/><polygon points="308.86,362.57 308.86,376 295.43,376" fill="#abbfde"/><polygon points="362.57,362.57 376,362.57 376,376" fill="#c4d2e7"/><polygon points="443.14,362.57 443.14,376 429.71,376" fill="#e9edf5"/><polygon points="577.43,362.57 577.43,376 564,376" fill="#cf7bf9"/><polygon points="26.86,429.71 40.29,443.14 26.86,443.14" fill="#e1b0fa"/><polygon points="174.57,429.71 174.57,443.14 161.14,443.14" fill="#f2e0fb"/><polygon points="228.29,429.71 241.72,443.14 228.29,443.14" fill="#bccce4"/><polygon points="308.86,429.71 308.86,443.14 295.43,443.14" fill="#c5d3e8"/><polygon points="362.57,429.71 376,443.14 362.57,443.14" fill="#d792f9"/><polygon points="429.71,429.71 443.14,443.14 429.71,443.14" fill="#e8edf4"/><polygon points="496.86,429.71 510.29,429.71 496.86,443.14" fill="#d5dfee"/><polygon points="564,429.71 577.43,429.71 577.43,443.14" fill="#f8f9fa"/></g></svg>