<?xml version="1.0" standalone="no"?><svg xmlns:xlink="http://www.w3.org/1999/xlink" xmlns="http://www.w3.org/2000/svg" viewBox="0 0 1000 777.783523814449" preserveAspectRatio="xMaxYMax slice"><g transform="scale(1.6548585613073383)"><rect x="0" y="0" width="604.2857142857142" height="470" fill="#ffffff"/><rect x="0" y="0" width="67.14285714285714" height="67.14285714285714" fill="#ffffff"/><circle cx="16.785" cy="16.785" r="16.785" fill="#ffe3a2"/><circle cx="50.355000000000004" cy="16.785" r="16.785" fill="#ffe7af"/><circle cx="16.785" cy="50.355000000000004" r="16.785" fill="#fffefb"/><circle cx="50.355000000000004" cy="50.355000000000004" r="16.785" fill="#fffcf6"/><rect x="67.14285714285714" y="0" width="67.14285714285714" height="67.14285714285714" fill="#ffffff"/><circle cx="83.925" cy="16.785" r="16.785" fill="#f9eefe"/><circle cx="117.49499999999999" cy="16.785" r="16.785" fill="#d58cfa"/><circle cx="83.925" cy="50.355000000000004" r="16.785" fill="#ca6ef9"/><circle cx="117.49499999999999" cy="50.355000000000004" r="16.785" fill="#ffda85"/><circle cx="167.85999999999999" cy="33.57" r="33.57" fill="#ce79fa"/><circle cx="235" cy="33.57" r="33.57" fill="#c765f9"/><rect x="268.57142857142856" y="0" width="67.14285714285714" height="67.14285714285714" fill="#ffffff"/><circle cx="285.355" cy="16.785" r="16.785" fill="#fffcf5"/><circle cx="318.925" cy="16.785" r="16.785" fill="#fff1d1"/><circle cx="285.355" cy="50.355000000000004" r="16.785" fill="#ffd26a"/><circle cx="318.925" cy="50.355000000000004" r="16.785" fill="#fff0cd"/><circle cx="369.28" cy="33.57" r="33.57" fill="#ffdd8e"/><rect x="402.85714285714283" y="0" width="67.14285714285714" height="67.14285714285714" fill="#ffffff"/><circle cx="419.64500000000004" cy="16.785" r="16.785" fill="#fefbff"/><circle cx="453.21500000000003" cy="16.785" r="16.785" fill="#ffcb51"/><circle cx="419.64500000000004" cy="50.355000000000004" r="16.785" fill="#edcdfd"/><circle cx="453.21500000000003" cy="50.355000000000004" r="16.785" fill="#c359f8"/><rect x="470" y="0" width="67.14285714285714" height="67.14285714285714" fill="#ffffff"/><circle cx="486.785" cy="16.785" r="16.785" fill="#ffd87d"/><circle cx="520.355" cy="16.785" r="16.785" fill="#ffd779"/><circle cx="486.785" cy="50.355000000000004" r="16.785" fill="#efd4fd"/><circle cx="520.355" cy="50.355000000000004" r="16.785" fill="#fffcf3"/><rect x="537.1428571428571" y="0" width="67.14285714285714" height="67.14285714285714" fill="#ffffff"/><circle cx="553.925" cy="16.785" r="16.785" fill="#ffefcb"/><circle cx="587.495" cy="16.785" r="16.785" fill="#f3defe"/><circle cx="553.925" cy="50.355000000000004" r="16.785" fill="#ffe4a6"/><circle cx="587.495" cy="50.355000000000004" r="16.785" fill="#c868f9"/><rect x="0" y="67.14285714285714" width="67.14285714285714" height="67.14285714285714" fill="#ffffff"/><circle cx="16.785" cy="83.925" r="16.785" fill="#da99fb"/><circle cx="50.355000000000004" cy="83.925" r="16.785" fill="#fffcf5"/><circle cx="16.785" cy="117.49499999999999" r="16.785" fill="#fff8e8"/><circle cx="50.355000000000004" cy="117.49499999999999" r="16.785" fill="#ffd779"/><rect x="67.14285714285714" y="67.14285714285714" width="67.14285714285714" height="67.14285714285714" fill="#ffffff"/><circle cx="83.925" cy="83.925" r="16.785" fill="#ffd77a"/><circle cx="117.49499999999999" cy="83.925" r="16.785" fill="#e1abfc"/><circle cx="83.925" cy="117.49499999999999" r="16.785" fill="#d58cfa"/><circle cx="117.49499999999999" cy="117.49499999999999" r="16.785" fill="#ffe19c"/><circle cx="167.85999999999999" cy="100.71000000000001" r="33.57" fill="#ffd061"/><rect x="201.42857142857142" y="67.14285714285714" width="67.14285714285714" height="67.14285714285714" fill="#ffffff"/><circle cx="218.215" cy="83.925" r="16.785" fill="#cc74f9"/><circle cx="251.785" cy="83.925" r="16.785" fill="#e2aefc"/><circle cx="218.215" cy="117.49499999999999" r="16.785" fill="#fffcf7"/><circle cx="251.785" cy="117.49499999999999" r="16.785" fill="#faf2fe"/><rect x="268.57142857142856" y="67.14285714285714" width="67.14285714285714" height="67.14285714285714" fill="#ffffff"/><circle cx="285.355" cy="83.925" r="16.785" fill="#ffca4f"/><circle cx="318.925" cy="83.925" r="16.785" fill="#f7e9fe"/><circle cx="285.355" cy="117.49499999999999" r="16.785" fill="#fff5dd"/><circle cx="318.925" cy="117.49499999999999" r="16.785" fill="#fff0cd"/><circle cx="369.28" cy="100.71000000000001" r="33.57" fill="#c45bf8"/><circle cx="436.43" cy="100.71000000000001" r="33.57" fill="#ffe7af"/><circle cx="503.57" cy="100.71000000000001" r="33.57" fill="#c660f9"/><circle cx="570.71" cy="100.71000000000001" r="33.57" fill="#efd2fd"/><circle cx="33.57" cy="167.85999999999999" r="33.57" fill="#ffe9b7"/><rect x="67.14285714285714" y="134.28571428571428" width="67.14285714285714" height="67.14285714285714" fill="#ffffff"/><circle cx="83.925" cy="151.075" r="16.785" fill="#ffefc8"/><circle cx="117.49499999999999" cy="151.075" r="16.785" fill="#ffe9b7"/><circle cx="83.925" cy="184.645" r="16.785" fill="#c45bf8"/><circle cx="117.49499999999999" cy="184.645" r="16.785" fill="#ffdb88"/><rect x="134.28571428571428" y="134.28571428571428" width="67.14285714285714" height="67.14285714285714" fill="#ffffff"/><circle cx="151.075" cy="151.075" r="16.785" fill="#fff6e3"/><circle cx="184.645" cy="151.075" r="16.785" fill="#d58bfa"/><circle cx="151.075" cy="184.645" r="16.785" fill="#eed1fd"/><circle cx="184.645" cy="184.645" r="16.785" fill="#fffefd"/><circle cx="235" cy="167.85999999999999" r="33.57" fill="#efd4fd"/><circle cx="302.14" cy="167.85999999999999" r="33.57" fill="#c969f9"/><circle cx="369.28" cy="167.85999999999999" r="33.57" fill="#fff2d3"/><rect x="402.85714285714283" y="134.28571428571428" width="67.14285714285714" height="67.14285714285714" fill="#ffffff"/><circle cx="419.64500000000004" cy="151.075" r="16.785" fill="#ffe6ab"/><circle cx="453.21500000000003" cy="151.075" r="16.785" fill="#ffd167"/><circle cx="419.64500000000004" cy="184.645" r="16.785" fill="#ca6df9"/><circle cx="453.21500000000003" cy="184.645" r="16.785" fill="#f8ecfe"/><circle cx="503.57" cy="167.85999999999999" r="33.57" fill="#fff9ea"/><rect x="537.1428571428571" y="134.28571428571428" width="67.14285714285714" height="67.14285714285714" fill="#ffffff"/><circle cx="553.925" cy="151.075" r="16.785" fill="#ffe097"/><circle cx="587.495" cy="151.075" r="16.785" fill="#ffdc8c"/><circle cx="553.925" cy="184.645" r="16.785" fill="#fbf4ff"/><circle cx="587.495" cy="184.645" r="16.785" fill="#ffcf5f"/><circle cx="33.57" cy="235" r="33.57" fill="#fff0ce"/><rect x="67.14285714285714" y="201.42857142857142" width="67.14285714285714" height="67.14285714285714" fill="#ffffff"/><circle cx="83.925" cy="218.215" r="16.785" fill="#fffefb"/><circle cx="117.49499999999999" cy="218.215" r="16.785" fill="#fff1d1"/><circle cx="83.925" cy="251.785" r="16.785" fill="#fff8e8"/><circle cx="117.49499999999999" cy="251.785" r="16.785" fill="#f3ddfe"/><rect x="134.28571428571428" y="201.42857142857142" width="67.14285714285714" height="67.14285714285714" fill="#ffffff"/><circle cx="151.075" cy="218.215" r="16.785" fill="#ffcc55"/><circle cx="184.645" cy="218.215" r="16.785" fill="#ffd97f"/><circle cx="151.075" cy="251.785" r="16.785" fill="#ffe5aa"/><circle cx="184.645" cy="251.785" r="16.785" fill="#d995fb"/><rect x="201.42857142857142" y="201.42857142857142" width="67.14285714285714" height="67.14285714285714" fill="#ffffff"/><circle cx="218.215" cy="218.215" r="16.785" fill="#cd75f9"/><circle cx="251.785" cy="218.215" r="16.785" fill="#ffdc8c"/><circle cx="218.215" cy="251.785" r="16.785" fill="#e6b9fc"/><circle cx="251.785" cy="251.785" r="16.785" fill="#e8c0fc"/><circle cx="302.14" cy="235" r="33.57" fill="#ffcf5f"/><rect x="335.71428571428567" y="201.42857142857142" width="67.14285714285714" height="67.14285714285714" fill="#ffffff"/><circle cx="352.495" cy="218.215" r="16.785" fill="#c359f8"/><circle cx="386.07500000000005" cy="218.215" r="16.785" fill="#ffd065"/><circle cx="352.495" cy="251.785" r="16.785" fill="#ce77f9"/><circle cx="386.07500000000005" cy="251.785" r="16.785" fill="#c55ef8"/><circle cx="436.43" cy="235" r="33.57" fill="#fff3d7"/><rect x="470" y="201.42857142857142" width="67.14285714285714" height="67.14285714285714" fill="#ffffff"/><circle cx="486.785" cy="218.215" r="16.785" fill="#ffebbd"/><circle cx="520.355" cy="218.215" r="16.785" fill="#dfa6fb"/><circle cx="486.785" cy="251.785" r="16.785" fill="#fff9ec"/><circle cx="520.355" cy="251.785" r="16.785" fill="#eed1fd"/><rect x="537.1428571428571" y="201.42857142857142" width="67.14285714285714" height="67.14285714285714" fill="#ffffff"/><circle cx="553.925" cy="218.215" r="16.785" fill="#fff5dd"/><circle cx="587.495" cy="218.215" r="16.785" fill="#fff8e9"/><circle cx="553.925" cy="251.785" r="16.785" fill="#ffe3a4"/><circle cx="587.495" cy="251.785" r="16.785" fill="#fffbf1"/><circle cx="33.57" cy="302.14" r="33.57" fill="#e0abfc"/><rect x="67.14285714285714" y="268.57142857142856" width="67.14285714285714" height="67.14285714285714" fill="#ffffff"/><circle cx="83.925" cy="285.355" r="16.785" fill="#ffe9b5"/><circle cx="117.49499999999999" cy="285.355" r="16.785" fill="#e7bdfc"/><circle cx="83.925" cy="318.925" r="16.785" fill="#ebc6fd"/><circle cx="117.49499999999999" cy="318.925" r="16.785" fill="#fff8e7"/><circle cx="167.85999999999999" cy="302.14" r="33.57" fill="#ffd165"/><rect x="201.42857142857142" y="268.57142857142856" width="67.14285714285714" height="67.14285714285714" fill="#ffffff"/><circle cx="218.215" cy="285.355" r="16.785" fill="#ffeab8"/><circle cx="251.785" cy="285.355" r="16.785" fill="#ffdb89"/><circle cx="218.215" cy="318.925" r="16.785" fill="#ffcf60"/><circle cx="251.785" cy="318.925" r="16.785" fill="#ffd677"/><circle cx="302.14" cy="302.14" r="33.57" fill="#ffeec8"/><circle cx="369.28" cy="302.14" r="33.57" fill="#e6b9fc"/><rect x="402.85714285714283" y="268.57142857142856" width="67.14285714285714" height="67.14285714285714" fill="#ffffff"/><circle cx="419.64500000000004" cy="285.355" r="16.785" fill="#fff6e0"/><circle cx="453.21500000000003" cy="285.355" r="16.785" fill="#cb6ff9"/><circle cx="419.64500000000004" cy="318.925" r="16.785" fill="#e2affc"/><circle cx="453.21500000000003" cy="318.925" r="16.785" fill="#ffd87e"/><rect x="470" y="268.57142857142856" width="67.14285714285714" height="67.14285714285714" fill="#ffffff"/><circle cx="486.785" cy="285.355" r="16.785" fill="#cf7afa"/><circle cx="520.355" cy="285.355" r="16.785" fill="#eecffd"/><circle cx="486.785" cy="318.925" r="16.785" fill="#ffe19b"/><circle cx="520.355" cy="318.925" r="16.785" fill="#eac4fd"/><circle cx="570.71" cy="302.14" r="33.57" fill="#fff4db"/><rect x="0" y="335.71428571428567" width="67.14285714285714" height="67.14285714285714" fill="#ffffff"/><circle cx="16.785" cy="352.495" r="16.785" fill="#cf7cfa"/><circle cx="50.355000000000004" cy="352.495" r="16.785" fill="#ffd980"/><circle cx="16.785" cy="386.07500000000005" r="16.785" fill="#ffda85"/><circle cx="50.355000000000004" cy="386.07500000000005" r="16.785" fill="#f9effe"/><circle cx="100.71000000000001" cy="369.28" r="33.57" fill="#ffdb86"/><circle cx="167.85999999999999" cy="369.28" r="33.57" fill="#f3dffe"/><circle cx="235" cy="369.28" r="33.57" fill="#ffda85"/><rect x="268.57142857142856" y="335.71428571428567" width="67.14285714285714" height="67.14285714285714" fill="#ffffff"/><circle cx="285.355" cy="352.495" r="16.785" fill="#c661f9"/><circle cx="318.925" cy="352.495" r="16.785" fill="#ffeec7"/><circle cx="285.355" cy="386.07500000000005" r="16.785" fill="#c96af9"/><circle cx="318.925" cy="386.07500000000005" r="16.785" fill="#e0a9fb"/><circle cx="369.28" cy="369.28" r="33.57" fill="#c35af8"/><circle cx="436.43" cy="369.28" r="33.57" fill="#e2affc"/><circle cx="503.57" cy="369.28" r="33.57" fill="#f7e8fe"/><rect x="537.1428571428571" y="335.71428571428567" width="67.14285714285714" height="67.14285714285714" fill="#ffffff"/><circle cx="553.925" cy="352.495" r="16.785" fill="#ffe2a0"/><circle cx="587.495" cy="352.495" r="16.785" fill="#fefdff"/><circle cx="553.925" cy="386.07500000000005" r="16.785" fill="#ffd980"/><circle cx="587.495" cy="386.07500000000005" r="16.785" fill="#e8c1fc"/><rect x="0" y="402.85714285714283" width="67.14285714285714" height="67.14285714285714" fill="#ffffff"/><circle cx="16.785" cy="419.64500000000004" r="16.785" fill="#e4b4fc"/><circle cx="50.355000000000004" cy="419.64500000000004" r="16.785" fill="#fff9ec"/><circle cx="16.785" cy="453.21500000000003" r="16.785" fill="#f9edfe"/><circle cx="50.355000000000004" cy="453.21500000000003" r="16.785" fill="#d07efa"/><circle cx="100.71000000000001" cy="436.43" r="33.57" fill="#c96bf9"/><circle cx="167.85999999999999" cy="436.43" r="33.57" fill="#ffd167"/><rect x="201.42857142857142" y="402.85714285714283" width="67.14285714285714" height="67.14285714285714" fill="#ffffff"/><circle cx="218.215" cy="419.64500000000004" r="16.785" fill="#fffbf2"/><circle cx="251.785" cy="419.64500000000004" r="16.785" fill="#ffce5e"/><circle cx="218.215" cy="453.21500000000003" r="16.785" fill="#eccafd"/><circle cx="251.785" cy="453.21500000000003" r="16.785" fill="#d283fa"/><circle cx="302.14" cy="436.43" r="33.57" fill="#c969f9"/><rect x="335.71428571428567" y="402.85714285714283" width="67.14285714285714" height="67.14285714285714" fill="#ffffff"/><circle cx="352.495" cy="419.64500000000004" r="16.785" fill="#ffe5a8"/><circle cx="386.07500000000005" cy="419.64500000000004" r="16.785" fill="#ffedc3"/><circle cx="352.495" cy="453.21500000000003" r="16.785" fill="#f6e7fe"/><circle cx="386.07500000000005" cy="453.21500000000003" r="16.785" fill="#ffeec6"/><circle cx="436.43" cy="436.43" r="33.57" fill="#e1aefc"/><circle cx="503.57" cy="436.43" r="33.57" fill="#ffd77c"/><rect x="537.1428571428571" y="402.85714285714283" width="67.14285714285714" height="67.14285714285714" fill="#ffffff"/><circle cx="553.925" cy="419.64500000000004" r="16.785" fill="#fff1d2"/><circle cx="587.495" cy="419.64500000000004" r="16.785" fill="#c868f9"/><circle cx="553.925" cy="453.21500000000003" r="16.785" fill="#ffde90"/><circle cx="587.495" cy="453.21500000000003" r="16.785" fill="#d283fa"/></g></svg>